<?xml version="1.0" encoding="utf-8"?>
<!-- Generator: Adobe Illustrator 22.1.0, SVG Export Plug-In . SVG Version: 6.00 Build 0)  -->
<svg version="1.1" id="Layer_1" xmlns="http://www.w3.org/2000/svg" xmlns:xlink="http://www.w3.org/1999/xlink" x="0px" y="0px"
	 viewBox="0 0 73.7 73.7" style="enable-background:new 0 0 73.7 73.7;" xml:space="preserve">
<style type="text/css">
	.st0{fill:#FFFFFF;}
	.st1{fill:none;stroke:#FFFFFF;stroke-miterlimit:10;}
</style>
<g>
	<g>
		<g>
			<g>
				<g>
					<path class="st0" d="M42,15.2V33c0,3-0.9,5.3-2.8,7c-1.8,1.7-4.4,2.6-7.6,2.6s-5.7-0.8-7.5-2.5s-2.8-4-2.8-6.9v-18h5.6V33
						c0,1.8,0.4,3.1,1.3,3.9c0.8,0.8,2,1.2,3.5,1.2c3.1,0,4.7-1.6,4.8-4.9v-18C36.5,15.2,42,15.2,42,15.2z"/>
					<path class="st0" d="M52.4,42.2h-5.6v-27h5.6V42.2z"/>
				</g>
			</g>
			<g>
				<path class="st0" d="M27.9,45.2v8.4c0,0.6,0,1.3,0.1,1.8h-1.1l-0.1-1.2h0c-0.4,0.8-1.2,1.4-2.4,1.4c-1.7,0-3-1.4-3-3.5
					c0-2.3,1.4-3.7,3.1-3.7c1.1,0,1.8,0.5,2.1,1.1h0v-4.1H27.9z M26.6,51.2c0-0.2,0-0.4-0.1-0.5c-0.2-0.8-0.9-1.5-1.8-1.5
					c-1.3,0-2.1,1.1-2.1,2.7c0,1.4,0.7,2.6,2,2.6c0.8,0,1.6-0.6,1.8-1.5c0-0.2,0.1-0.3,0.1-0.5V51.2z"/>
				<path class="st0" d="M34.8,55.3l-0.1-0.9h0c-0.4,0.5-1.1,1-2.1,1c-1.4,0-2.1-1-2.1-2c0-1.7,1.5-2.6,4.2-2.6v-0.1
					c0-0.6-0.2-1.6-1.6-1.6c-0.6,0-1.3,0.2-1.8,0.5L31,48.9c0.6-0.4,1.4-0.6,2.3-0.6c2.1,0,2.6,1.4,2.6,2.8v2.6c0,0.6,0,1.2,0.1,1.7
					H34.8z M34.7,51.8c-1.4,0-2.9,0.2-2.9,1.6c0,0.8,0.5,1.2,1.2,1.2c0.9,0,1.5-0.6,1.7-1.2c0-0.1,0.1-0.3,0.1-0.4V51.8z"/>
				<path class="st0" d="M40.4,46.5c0,0.4-0.3,0.8-0.8,0.8c-0.4,0-0.8-0.3-0.8-0.8c0-0.4,0.3-0.8,0.8-0.8
					C40.1,45.7,40.4,46,40.4,46.5z M39,55.3v-6.9h1.3v6.9H39z"/>
				<path class="st0" d="M43.4,45.2h1.3v10.1h-1.3V45.2z"/>
				<path class="st0" d="M48.3,48.4l1.5,4.1c0.2,0.5,0.3,1,0.4,1.4h0c0.1-0.4,0.3-0.9,0.4-1.4l1.4-4.1h1.3l-1.9,4.9
					c-0.9,2.4-1.5,3.6-2.4,4.3c-0.6,0.5-1.2,0.8-1.5,0.8l-0.3-1.1c0.3-0.1,0.7-0.3,1.1-0.6c0.3-0.3,0.8-0.8,1.1-1.4
					c0.1-0.1,0.1-0.2,0.1-0.3s0-0.2-0.1-0.3l-2.6-6.4H48.3z"/>
			</g>
		</g>
	</g>
	<rect x="0.5" y="0.5" class="st1" width="72.7" height="72.7"/>
	<rect x="4.2" y="4.2" class="st1" width="65.4" height="65.4"/>
</g>
</svg>
