<?xml version="1.0" encoding="utf-8"?>
<!-- Generator: Adobe Illustrator 21.1.0, SVG Export Plug-In . SVG Version: 6.00 Build 0)  -->
<svg version="1.1" id="Layer_1" xmlns="http://www.w3.org/2000/svg" xmlns:xlink="http://www.w3.org/1999/xlink" x="0px" y="0px"
	 viewBox="0 0 499.4 486.9" style="enable-background:new 0 0 499.4 486.9;" xml:space="preserve">
<style type="text/css">
	.st0{fill:#FFFFFF;}
</style>
<path class="st0" d="M296.5,337.5L230.3,113c-0.4-1.7-1-2.1-2.5-2.1h-43.7c-1.1,0-1.7,0.6-1.7,2.1c-0.4,10.2-1.1,13.6-2.1,17.3
	l-59.1,206.8c-0.4,2.5,0,3.1,2.1,3.1h30.6c2.1,0,2.7-0.4,3.1-2.1l16.4-62.4h66.7l17.1,62.6c0.4,1.5,1.4,1.9,3.1,1.9h34.5
	C296.5,340.2,296.9,339.2,296.5,337.5z M181.9,242c8.7-32.3,19.7-73.5,24.1-97.8h0.4c5.2,24.4,19,74.7,24.8,97.8H181.9z"/>
<path class="st0" d="M324.8,126.3c0-13.3,9.4-21.2,21.2-21.2c12.7,0,21.2,8.5,21.2,21.2c0,13.7-8.9,21.2-21.6,21.2
	C333.6,147.6,324.8,140.1,324.8,126.3z"/>
<path class="st0" d="M364.8,173.6v164.2c0,1.7-0.4,2.5-2.5,2.5H330c-2.1,0-2.7-1-2.7-2.7v-164h-0.2c0-1.7,0.6-2.5,2.5-2.5h32.7
	C364,171.1,364.8,171.7,364.8,173.6z"/>
<path class="st0" d="M296.5,337.5L230.3,113c-0.4-1.7-1-2.1-2.5-2.1h-43.7c-1.1,0-1.7,0.6-1.7,2.1c-0.4,10.2-1.1,13.6-2.1,17.3
	l-59.1,206.8c-0.4,2.5,0,3.1,2.1,3.1h30.6c2.1,0,2.7-0.4,3.1-2.1l16.4-62.4h66.7l17.1,62.6c0.4,1.5,1.4,1.9,3.1,1.9h34.5
	C296.5,340.2,296.9,339.2,296.5,337.5z M181.9,242c8.7-32.3,19.7-73.5,24.1-97.8h0.4c5.2,24.4,19,74.7,24.8,97.8H181.9z M346,105.1
	c-11.8,0-21.2,7.9-21.2,21.2c0,13.8,8.8,21.3,20.8,21.2c12.7,0,21.6-7.5,21.6-21.2C367.2,113.6,358.7,105.1,346,105.1z M362.3,171.1
	h-32.7c-1.9,0-2.5,0.8-2.5,2.5h0.2v164c0,1.7,0.6,2.7,2.7,2.7h32.3c2.1,0,2.5-0.8,2.5-2.5V173.6C364.8,171.7,364,171.1,362.3,171.1z
	 M296.5,337.5L230.3,113c-0.4-1.7-1-2.1-2.5-2.1h-43.7c-1.1,0-1.7,0.6-1.7,2.1c-0.4,10.2-1.1,13.6-2.1,17.3l-59.1,206.8
	c-0.4,2.5,0,3.1,2.1,3.1h30.6c2.1,0,2.7-0.4,3.1-2.1l16.4-62.4h66.7l17.1,62.6c0.4,1.5,1.4,1.9,3.1,1.9h34.5
	C296.5,340.2,296.9,339.2,296.5,337.5z M181.9,242c8.7-32.3,19.7-73.5,24.1-97.8h0.4c5.2,24.4,19,74.7,24.8,97.8H181.9z M346,105.1
	c-11.8,0-21.2,7.9-21.2,21.2c0,13.8,8.8,21.3,20.8,21.2c12.7,0,21.6-7.5,21.6-21.2C367.2,113.6,358.7,105.1,346,105.1z M362.3,171.1
	h-32.7c-1.9,0-2.5,0.8-2.5,2.5h0.2v164c0,1.7,0.6,2.7,2.7,2.7h32.3c2.1,0,2.5-0.8,2.5-2.5V173.6C364.8,171.7,364,171.1,362.3,171.1z
	 M362.3,171.1h-32.7c-1.9,0-2.5,0.8-2.5,2.5h0.2v164c0,1.7,0.6,2.7,2.7,2.7h32.3c2.1,0,2.5-0.8,2.5-2.5V173.6
	C364.8,171.7,364,171.1,362.3,171.1z M345.6,147.5c12.7,0,21.6-7.5,21.6-21.2c0-12.7-8.5-21.2-21.2-21.2c-11.8,0-21.2,7.9-21.2,21.2
	C324.8,140.1,333.6,147.6,345.6,147.5z M230.3,113c-0.4-1.7-1-2.1-2.5-2.1h-43.7c-1.1,0-1.7,0.6-1.7,2.1
	c-0.4,10.2-1.1,13.6-2.1,17.3l-59.1,206.8c-0.4,2.5,0,3.1,2.1,3.1h30.6c2.1,0,2.7-0.4,3.1-2.1l16.4-62.4h66.7l17.1,62.6
	c0.4,1.5,1.4,1.9,3.1,1.9h34.5c1.7,0,2.1-1,1.7-2.7L230.3,113z M181.9,242c8.7-32.3,19.7-73.5,24.1-97.8h0.4
	c5.2,24.4,19,74.7,24.8,97.8H181.9z M0,0v486.9h499.4V0H0z M478.5,466.1H20.8V20.8h457.7V466.1z M362.3,171.1h-32.7
	c-1.9,0-2.5,0.8-2.5,2.5h0.2v164c0,1.7,0.6,2.7,2.7,2.7h32.3c2.1,0,2.5-0.8,2.5-2.5V173.6C364.8,171.7,364,171.1,362.3,171.1z
	 M345.6,147.5c12.7,0,21.6-7.5,21.6-21.2c0-12.7-8.5-21.2-21.2-21.2c-11.8,0-21.2,7.9-21.2,21.2
	C324.8,140.1,333.6,147.6,345.6,147.5z M123.3,340.2h30.6c2.1,0,2.7-0.4,3.1-2.1l16.4-62.4h66.7l17.1,62.6c0.4,1.5,1.4,1.9,3.1,1.9
	h34.5c1.7,0,2.1-1,1.7-2.7L230.3,113c-0.4-1.7-1-2.1-2.5-2.1h-43.7c-1.1,0-1.7,0.6-1.7,2.1c-0.4,10.2-1.1,13.6-2.1,17.3l-59.1,206.8
	C120.8,339.6,121.2,340.2,123.3,340.2z M206,144.2h0.4c5.2,24.4,19,74.7,24.8,97.8h-49.3C190.6,209.7,201.6,168.5,206,144.2z
	 M362.3,171.1h-32.7c-1.9,0-2.5,0.8-2.5,2.5h0.2v164c0,1.7,0.6,2.7,2.7,2.7h32.3c2.1,0,2.5-0.8,2.5-2.5V173.6
	C364.8,171.7,364,171.1,362.3,171.1z M346,105.1c-11.8,0-21.2,7.9-21.2,21.2c0,13.8,8.8,21.3,20.8,21.2c12.7,0,21.6-7.5,21.6-21.2
	C367.2,113.6,358.7,105.1,346,105.1z M296.5,337.5L230.3,113c-0.4-1.7-1-2.1-2.5-2.1h-43.7c-1.1,0-1.7,0.6-1.7,2.1
	c-0.4,10.2-1.1,13.6-2.1,17.3l-59.1,206.8c-0.4,2.5,0,3.1,2.1,3.1h30.6c2.1,0,2.7-0.4,3.1-2.1l16.4-62.4h66.7l17.1,62.6
	c0.4,1.5,1.4,1.9,3.1,1.9h34.5C296.5,340.2,296.9,339.2,296.5,337.5z M181.9,242c8.7-32.3,19.7-73.5,24.1-97.8h0.4
	c5.2,24.4,19,74.7,24.8,97.8H181.9z"/>
</svg>
