<?xml version="1.0" encoding="utf-8"?>
<!-- Generator: Adobe Illustrator 21.1.0, SVG Export Plug-In . SVG Version: 6.00 Build 0)  -->
<svg version="1.1" xmlns="http://www.w3.org/2000/svg" xmlns:xlink="http://www.w3.org/1999/xlink" x="0px" y="0px"
	 viewBox="0 0 306.2 272.2" style="enable-background:new 0 0 306.2 272.2;" xml:space="preserve">
<style type="text/css">
	.st0{fill:#F2C041;}
	.st1{fill:#F6CE65;}
	.st2{fill:#335FFF;}
	.st3{fill:#5E5344;}
	.st4{fill:#FF0000;}
	.st5{fill:#B89D65;}
	.st6{fill:#887764;}
	.st7{fill:#505E30;}
	.st8{fill:#FFFFFF;}
</style>
<g id="sec1">
	<rect x="62.2" y="176.5" class="st0" width="20.2" height="20.2"/>
	<rect x="102.6" y="176.5" class="st1" width="20.2" height="20.2"/>
	<rect x="122.8" y="156.3" class="st1" width="20.2" height="20.2"/>
	<rect x="183.4" y="156.3" class="st1" width="20.2" height="20.2"/>
	<rect x="122.8" y="115.9" class="st1" width="20.2" height="20.2"/>
	<rect x="163.2" y="136.1" class="st1" width="20.2" height="20.2"/>
	<rect x="203.6" y="115.9" class="st1" width="20.2" height="20.2"/>
	<rect x="102.6" y="95.7" class="st2" width="20.2" height="20.2"/>
	<rect x="203.6" y="196.7" class="st0" width="20.2" height="10.1"/>
	<rect x="62.2" y="136.1" class="st3" width="20.2" height="20.2"/>
	<rect x="82.4" y="115.9" class="st3" width="20.2" height="20.2"/>
	<rect x="82.4" y="75.5" class="st2" width="20.2" height="20.2"/>
	<rect x="102.6" y="55.3" class="st2" width="20.2" height="20.2"/>
	<rect x="143" y="55.3" class="st2" width="20.2" height="20.2"/>
	<rect x="183.4" y="95.7" class="st2" width="20.2" height="20.2"/>
	<rect x="173.3" y="85.6" class="st4" width="10.1" height="10.1"/>
	<rect x="183.4" y="75.5" class="st4" width="10.1" height="10.1"/>
	<rect x="173.3" y="186.6" class="st5" width="10.1" height="10.1"/>
	<rect x="143" y="176.5" class="st6" width="40.4" height="10.1"/>
	<rect x="143" y="206.8" class="st6" width="20.2" height="10.1"/>
	<rect x="183.4" y="206.8" class="st6" width="20.2" height="10.1"/>
	<rect x="92.5" y="196.7" class="st6" width="10.1" height="20.2"/>
</g>
<g id="sec2">
	<rect x="82.4" y="176.5" class="st0" width="10.1" height="20.2"/>
	<rect x="102.6" y="156.3" class="st1" width="20.2" height="20.2"/>
	<rect x="143" y="156.3" class="st1" width="20.2" height="20.2"/>
	<rect x="183.4" y="176.5" class="st1" width="20.2" height="20.2"/>
	<rect x="203.6" y="156.3" class="st1" width="20.2" height="20.2"/>
	<rect x="102.6" y="115.9" class="st1" width="20.2" height="20.2"/>
	<rect x="183.4" y="115.9" class="st1" width="20.2" height="20.2"/>
	<rect x="122.8" y="196.7" class="st0" width="20.2" height="10.1"/>
	<rect x="82.4" y="136.1" class="st3" width="20.2" height="20.2"/>
	<rect x="62.2" y="95.7" class="st2" width="20.2" height="20.2"/>
	<rect x="82.4" y="55.3" class="st2" width="20.2" height="20.2"/>
	<rect x="122.8" y="75.5" class="st2" width="20.2" height="20.2"/>
	<rect x="163.2" y="75.5" class="st2" width="10.1" height="20.2"/>
	<rect x="132.9" y="136.1" class="st7" width="20.2" height="20.2"/>
	<rect x="203.6" y="95.7" class="st2" width="20.2" height="20.2"/>
	<rect x="183.4" y="55.3" class="st2" width="20.2" height="20.2"/>
	<rect x="143" y="186.6" class="st5" width="10.1" height="10.1"/>
	<rect x="163.2" y="206.8" class="st6" width="20.2" height="10.1"/>
	<rect x="203.6" y="206.8" class="st6" width="20.2" height="10.1"/>
</g>
<g id="sec3">
	<rect x="82.4" y="156.3" class="st1" width="10.1" height="20.2"/>
	<rect x="122.8" y="176.5" class="st1" width="20.2" height="20.2"/>
	<rect x="163.2" y="156.3" class="st1" width="20.2" height="20.2"/>
	<rect x="163.2" y="186.6" class="st1" width="10.1" height="10.1"/>
	<rect x="203.6" y="176.5" class="st1" width="20.2" height="20.2"/>
	<rect x="102.6" y="136.1" class="st1" width="20.2" height="20.2"/>
	<rect x="143" y="115.9" class="st1" width="20.2" height="20.2"/>
	<rect x="122.8" y="95.7" class="st2" width="20.2" height="20.2"/>
	<rect x="163.2" y="95.7" class="st2" width="20.2" height="20.2"/>
	<rect x="203.6" y="136.1" class="st1" width="20.2" height="20.2"/>
	<rect x="102.6" y="196.7" class="st0" width="20.2" height="10.1"/>
	<rect x="153.1" y="196.7" class="st0" width="10.1" height="10.1"/>
	<rect x="62.2" y="75.5" class="st2" width="20.2" height="20.2"/>
	<rect x="102.6" y="75.5" class="st2" width="20.2" height="20.2"/>
	<rect x="143" y="75.5" class="st2" width="20.2" height="20.2"/>
	<rect x="203.6" y="75.5" class="st2" width="20.2" height="20.2"/>
	<rect x="173.3" y="196.7" class="st6" width="10.1" height="10.1"/>
	<rect x="122.8" y="206.8" class="st6" width="20.2" height="10.1"/>
	<rect x="92.5" y="176.5" class="st6" width="10.1" height="20.2"/>
</g>
<g id="sec4">
	<rect x="62.2" y="156.3" class="st1" width="20.2" height="20.2"/>
	<rect x="153.1" y="186.6" class="st1" width="10.1" height="10.1"/>
	<rect x="122.8" y="136.1" class="st1" width="10.1" height="20.2"/>
	<rect x="153.1" y="136.1" class="st1" width="10.1" height="20.2"/>
	<rect x="163.2" y="115.9" class="st1" width="20.2" height="20.2"/>
	<rect x="183.4" y="136.1" class="st1" width="20.2" height="20.2"/>
	<rect x="143" y="95.7" class="st2" width="20.2" height="20.2"/>
	<rect x="82.4" y="196.7" class="st0" width="10.1" height="20.2"/>
	<rect x="163.2" y="196.7" class="st0" width="10.1" height="10.1"/>
	<rect x="183.4" y="196.7" class="st0" width="20.2" height="10.1"/>
	<rect x="62.2" y="115.9" class="st3" width="20.2" height="20.2"/>
	<rect x="82.4" y="95.7" class="st2" width="20.2" height="20.2"/>
	<rect x="122.8" y="55.3" class="st2" width="20.2" height="20.2"/>
	<rect x="183.4" y="136.1" class="st7" width="20.2" height="20.2"/>
	<rect x="163.2" y="55.3" class="st2" width="20.2" height="20.2"/>
	<rect x="193.5" y="75.5" class="st2" width="10.1" height="20.2"/>
	<rect x="223.8" y="95.7" class="st2" width="40.4" height="20.2"/>
	<rect x="183.4" y="85.6" class="st8" width="10.1" height="10.1"/>
	<rect x="173.3" y="75.5" class="st8" width="10.1" height="10.1"/>
	<rect x="143" y="196.7" class="st6" width="10.1" height="10.1"/>
	<rect x="102.6" y="206.8" class="st6" width="20.2" height="10.1"/>
	<rect x="92.5" y="156.3" class="st6" width="10.1" height="20.2"/>
</g>
</svg>
