<?xml version="1.0" encoding="utf-8"?>
<!-- Generator: Adobe Illustrator 21.1.0, SVG Export Plug-In . SVG Version: 6.00 Build 0)  -->
<svg version="1.1" id="Layer_1" xmlns="http://www.w3.org/2000/svg" xmlns:xlink="http://www.w3.org/1999/xlink" x="0px" y="0px"
	 viewBox="0 0 499 486.6" style="enable-background:new 0 0 499 486.6;" xml:space="preserve">
<style type="text/css">
	.st0{fill:#FFFFFF;}
</style>
<g>
	<path class="st0" d="M178.8,110.5c-20.5,0-40.3,0.4-53.6,1c-1.7,0-4.6,1-4.6,2.5v223.3c0,1.9,0.8,2.5,2.5,2.5h31.8
		c1.9,0,2.5-0.8,2.5-2.5v-79.8c5.6,0,8.3,0.4,16.2,0.4c47,0,85.3-22.7,85.3-75.5C258.9,142.1,236.4,110.5,178.8,110.5z M174.5,224.8
		c-8.3,0-12,0-16.8-0.4l-0.1-80.3c3.8-0.2,11.7-0.6,20-0.6c27.7,0,44.1,13.3,44.1,39.7C221.7,216.3,198.8,224.8,174.5,224.8z"/>
	<path class="st0" d="M178.8,110.5c-20.5,0-40.3,0.4-53.6,1c-1.7,0-4.6,1-4.6,2.5v223.3c0,1.9,0.8,2.5,2.5,2.5h31.8
		c1.9,0,2.5-0.8,2.5-2.5v-79.8c5.6,0,8.3,0.4,16.2,0.4c47,0,85.3-22.7,85.3-75.5C258.9,142.1,236.4,110.5,178.8,110.5z M174.5,224.8
		c-8.3,0-12,0-16.8-0.4l-0.1-80.3c3.8-0.2,11.7-0.6,20-0.6c27.7,0,44.1,13.3,44.1,39.7C221.7,216.3,198.8,224.8,174.5,224.8z"/>
	<path class="st0" d="M279.1,331.2v-30.7c0-2.1,1-2.7,2.5-1.7c13.1,8.5,28.1,12.3,41.8,12.3c16.4,0,23.3-6.9,23.3-16.2
		c0-7.5-4.8-14.1-25.8-25c-29.5-14.1-41.8-28.4-41.8-52.4c0-26.8,21-49.1,57.4-49.1c17.9,0,30.4,2.7,37.2,5.8c1.7,1,2.1,2.7,2.1,4.2
		v28.5c0,1.7-1,2.7-3.1,2.1c-9.2-5.8-22.7-9.3-36.2-9.3c-16.4,0-22,8.3-22,15.2c0,7.5,3.7,12.7,25.8,24.1
		c32.6,15.8,42.8,31,42.8,53.2c0,33.3-25.4,51.2-59.7,51.2c-18.1,0-33.7-3.7-42.6-8.9C279.3,333.9,279.1,332.8,279.1,331.2z"/>
	<path class="st0" d="M0,0v486.6h499V0H0z M478.3,465.8H20.8v-445h457.5V465.8z"/>
	<path class="st0" d="M178.8,110.5c-20.5,0-40.3,0.4-53.6,1c-1.7,0-4.6,1-4.6,2.5v223.3c0,1.9,0.8,2.5,2.5,2.5h31.8
		c1.9,0,2.5-0.8,2.5-2.5v-79.8c5.6,0,8.3,0.4,16.2,0.4c47,0,85.3-22.7,85.3-75.5C258.9,142.1,236.4,110.5,178.8,110.5z M174.5,224.8
		c-8.3,0-12,0-16.8-0.4l-0.1-80.3c3.8-0.2,11.7-0.6,20-0.6c27.7,0,44.1,13.3,44.1,39.7C221.7,216.3,198.8,224.8,174.5,224.8z"/>
	<path class="st0" d="M383.1,292.2c0,33.3-25.4,51.2-59.7,51.2c-18.1,0-33.7-3.7-42.6-8.9c-1.5-0.6-1.7-1.7-1.7-3.3v-30.7
		c0-2.1,1-2.7,2.5-1.7c13.1,8.5,28.1,12.3,41.8,12.3c16.4,0,23.3-6.9,23.3-16.2c0-7.5-4.8-14.1-25.8-25
		c-29.5-14.1-41.8-28.4-41.8-52.4c0-26.8,21-49.1,57.4-49.1c17.9,0,30.4,2.7,37.2,5.8c1.7,1,2.1,2.7,2.1,4.2v28.5
		c0,1.7-1,2.7-3.1,2.1c-9.2-5.8-22.7-9.3-36.2-9.3c-16.4,0-22,8.3-22,15.2c0,7.5,3.7,12.7,25.8,24.1
		C372.9,254.8,383.1,270,383.1,292.2z"/>
	<path class="st0" d="M178.8,110.5c-20.5,0-40.3,0.4-53.6,1c-1.7,0-4.6,1-4.6,2.5v223.3c0,1.9,0.8,2.5,2.5,2.5h31.8
		c1.9,0,2.5-0.8,2.5-2.5v-79.8c5.6,0,8.3,0.4,16.2,0.4c47,0,85.3-22.7,85.3-75.5C258.9,142.1,236.4,110.5,178.8,110.5z M174.5,224.8
		c-8.3,0-12,0-16.8-0.4l-0.1-80.3c3.8-0.2,11.7-0.6,20-0.6c27.7,0,44.1,13.3,44.1,39.7C221.7,216.3,198.8,224.8,174.5,224.8z"/>
	<path class="st0" d="M383.1,292.2c0,33.3-25.4,51.2-59.7,51.2c-18.1,0-33.7-3.7-42.6-8.9c-1.5-0.6-1.7-1.7-1.7-3.3v-30.7
		c0-2.1,1-2.7,2.5-1.7c13.1,8.5,28.1,12.3,41.8,12.3c16.4,0,23.3-6.9,23.3-16.2c0-7.5-4.8-14.1-25.8-25
		c-29.5-14.1-41.8-28.4-41.8-52.4c0-26.8,21-49.1,57.4-49.1c17.9,0,30.4,2.7,37.2,5.8c1.7,1,2.1,2.7,2.1,4.2v28.5
		c0,1.7-1,2.7-3.1,2.1c-9.2-5.8-22.7-9.3-36.2-9.3c-16.4,0-22,8.3-22,15.2c0,7.5,3.7,12.7,25.8,24.1
		C372.9,254.8,383.1,270,383.1,292.2z"/>
	<path class="st0" d="M383.1,292.2c0,33.3-25.4,51.2-59.7,51.2c-18.1,0-33.7-3.7-42.6-8.9c-1.5-0.6-1.7-1.7-1.7-3.3v-30.7
		c0-2.1,1-2.7,2.5-1.7c13.1,8.5,28.1,12.3,41.8,12.3c16.4,0,23.3-6.9,23.3-16.2c0-7.5-4.8-14.1-25.8-25
		c-29.5-14.1-41.8-28.4-41.8-52.4c0-26.8,21-49.1,57.4-49.1c17.9,0,30.4,2.7,37.2,5.8c1.7,1,2.1,2.7,2.1,4.2v28.5
		c0,1.7-1,2.7-3.1,2.1c-9.2-5.8-22.7-9.3-36.2-9.3c-16.4,0-22,8.3-22,15.2c0,7.5,3.7,12.7,25.8,24.1
		C372.9,254.8,383.1,270,383.1,292.2z"/>
</g>
</svg>
