<svg xmlns="http://www.w3.org/2000/svg" viewBox="0 0 398.51 390.12"><defs><style>.cls-1,.cls-2,.cls-3{fill:#fff;}.cls-1,.cls-2{stroke:#000;stroke-miterlimit:10;}.cls-1{stroke-width:4.13px;}.cls-2{stroke-width:4.04px;}.cls-4{fill:#021116;}</style></defs><title>skull</title><g id="Layer_2" data-name="Layer 2"><path class="cls-1" d="M47.39,333.09l-7.52-25.44s107.76,0,160,5.95l3.58,23.79Z"/><path class="cls-2" d="M22.22,261.38l5.31,33.71s105.62-.33,174.09,5.95l8.9-34S26.33,261,22.22,261.38Z"/><line class="cls-1" x1="51.05" y1="295.17" x2="48.33" y2="264.19"/><line class="cls-1" x1="79.31" y1="295.17" x2="78.07" y2="263.2"/><line class="cls-1" x1="106.07" y1="296.1" x2="106.32" y2="264.93"/><line class="cls-1" x1="132.59" y1="296.93" x2="135.56" y2="266.33"/><line class="cls-1" x1="156.64" y1="297.97" x2="161.34" y2="266.92"/><line class="cls-1" x1="182.89" y1="299.53" x2="188.85" y2="266.92"/><line class="cls-1" x1="59.48" y1="307.64" x2="63.94" y2="332.84"/><line class="cls-1" x1="85.5" y1="308.1" x2="86.74" y2="334.08"/><line class="cls-1" x1="111.27" y1="308.65" x2="110.78" y2="335.81"/><line class="cls-1" x1="134.08" y1="309.36" x2="135.07" y2="338.04"/><line class="cls-1" x1="158.99" y1="310.46" x2="157.62" y2="338.04"/><line class="cls-1" x1="182.64" y1="311.97" x2="181.17" y2="337.38"/><path class="cls-3" d="M354.9,288.93c-17.27,0-37.45-11.6-55.25-21.83-11.21-6.45-21.8-12.53-28.88-13.84a31.66,31.66,0,0,0-5.75-.51c-24.61,0-53.75,25.56-54,25.82l-.66.58-.87-.1C151,272.68,77.41,272,48.51,272c-12.15,0-23.5.12-31.14.33l-1.39,0-.51-1.3A196.33,196.33,0,0,1,2,199.26C2,90.48,90.48,2,199.26,2a197.42,197.42,0,0,1,186.9,260.58C380.31,280.05,369.8,288.93,354.9,288.93Z"/><path d="M199.26,4a195.44,195.44,0,0,1,185,258c-6.19,18.52-16.84,25-29.38,25-27.94,0-65.3-32.22-83.77-35.64a33.56,33.56,0,0,0-6.11-.54c-25.64,0-55.36,26.32-55.36,26.32C157.24,271.37,90.15,270,48.52,270c-13.58,0-24.44.14-31.21.33A194.72,194.72,0,0,1,4,199.26C4,91.4,91.4,4,199.26,4m0-4A199.37,199.37,0,0,0,13.62,271.78l1,2.6,2.79-.08c7.62-.21,19-.33,31.1-.33,28.87,0,102.33.69,160.72,7l1.74.19L212.3,280c.29-.25,28.9-25.32,52.73-25.32a29.69,29.69,0,0,1,5.39.47c6.74,1.25,17.19,7.25,28.25,13.61,18,10.36,38.44,22.1,56.24,22.1,15.85,0,27-9.33,33.14-27.72A199.2,199.2,0,0,0,199.26,0Z"/><circle class="cls-4" cx="211.65" cy="172" r="32.71"/><circle class="cls-4" cx="50.56" cy="169.52" r="24.78"/><path class="cls-4" d="M91.5,217.69s7.93-7.52,22.9-6.53,24.33,7.33,24.33,7.33S120.62,155.11,91.5,217.69Z"/><path class="cls-4" d="M209.17,120.94s23.79,1,45.6,23.79C254.77,144.73,237.92,112,209.17,120.94Z"/><path class="cls-4" d="M29.74,139.78A39.73,39.73,0,0,1,68.4,123.92S40.64,110,29.74,139.78Z"/><path class="cls-3" d="M242.31,388.14q-1,0-2,0c-61.76-2-185.18-8.85-186.42-8.92l-1.42-.08-15-53.64,2.81.2c.8.06,80.65,5.62,130.18,5.62h0c9.9,0,18-.22,24.19-.66,10.61-.76,19-4.69,24.86-11.69,12.17-14.46,10-37.45,10-37.68l-.13-1.26,1.09-.65c1-.61,25.41-15,39.76-15a14.69,14.69,0,0,1,5.64,1c12,5,39.86,25.14,41,26l1,.7-.16,1.18a188.17,188.17,0,0,1-14.08,47.17C289.21,371.62,268,388.14,242.31,388.14Z"/><path d="M270.22,266.33a12.71,12.71,0,0,1,4.87.83c11.9,5,40.64,25.77,40.64,25.77s-12.62,93.22-73.43,93.22q-1,0-1.92,0C177.94,384.14,54,377.2,54,377.2L40.15,327.63s80.14,5.62,130.31,5.62c9.41,0,17.76-.2,24.34-.67,41.64-3,36.68-51.55,36.68-51.55s24.77-14.71,38.75-14.71m0-4v0h0c-14.89,0-39.72,14.64-40.77,15.27l-2.18,1.29.26,2.52c0,.22,2.08,22.42-9.54,36.22-5.53,6.57-13.43,10.26-23.48,11-6.11.44-14.2.66-24.05.66-49.46,0-129.23-5.56-130-5.61l-5.61-.39,1.52,5.42,13.88,49.57L51,381l2.83.16c1.24.07,124.68,7,186.47,8.93q1,0,2,0c26.52,0,48.34-16.91,63.11-48.91a186.53,186.53,0,0,0,14.24-47.74l.32-2.35-1.92-1.39c-1.19-.86-29.26-21.15-41.45-26.22a16.62,16.62,0,0,0-6.4-1.14Z"/></g></svg>